<mxfile>
    <diagram id="C5RBs43oDa-KdzZeNtuy" name="Page-1">
        <mxGraphModel dx="486" dy="529" grid="1" gridSize="10" guides="1" tooltips="1" connect="1" arrows="1" fold="1" page="1" pageScale="1" pageWidth="827" pageHeight="1169" math="0" shadow="0">
            <root>
                <mxCell id="WIyWlLk6GJQsqaUBKTNV-0"/>
                <mxCell id="WIyWlLk6GJQsqaUBKTNV-1" parent="WIyWlLk6GJQsqaUBKTNV-0"/>
                <mxCell id="WIyWlLk6GJQsqaUBKTNV-2" value="" style="rounded=0;html=1;jettySize=auto;orthogonalLoop=1;fontSize=11;endArrow=block;endFill=0;endSize=8;strokeWidth=1;shadow=0;labelBackgroundColor=none;edgeStyle=orthogonalEdgeStyle;" parent="WIyWlLk6GJQsqaUBKTNV-1" source="WIyWlLk6GJQsqaUBKTNV-3" edge="1">
                    <mxGeometry relative="1" as="geometry">
                        <mxPoint x="121" y="180" as="targetPoint"/>
                    </mxGeometry>
                </mxCell>
                <mxCell id="WIyWlLk6GJQsqaUBKTNV-3" value="input&lt;br&gt;(レーザー出力,内径,外径)&lt;br&gt;L_i [mW],d[mm], D[mm]" style="rounded=1;whiteSpace=wrap;html=1;fontSize=12;glass=0;strokeWidth=1;shadow=0;" parent="WIyWlLk6GJQsqaUBKTNV-1" vertex="1">
                    <mxGeometry x="46" y="70" width="150" height="60" as="geometry"/>
                </mxCell>
                <mxCell id="H9bdCFED5cMMtgCu7hp--0" value="分解能あたりの強度計算&lt;br&gt;i_per_s[mW]" style="rounded=1;whiteSpace=wrap;html=1;fontSize=12;glass=0;strokeWidth=1;shadow=0;" parent="WIyWlLk6GJQsqaUBKTNV-1" vertex="1">
                    <mxGeometry x="46" y="180" width="150" height="60" as="geometry"/>
                </mxCell>
                <mxCell id="H9bdCFED5cMMtgCu7hp--1" value="前提&lt;br&gt;&lt;span&gt;・レーザーの出力分布は一様であると仮定&lt;/span&gt;&lt;br&gt;・レーザー光は一応な正方形に補正&lt;br&gt;・空間分解能:10&lt;sup&gt;-6&lt;/sup&gt;[mm]に設定" style="text;html=1;align=left;verticalAlign=middle;resizable=0;points=[];autosize=1;strokeColor=#d79b00;fillColor=#ffe6cc;" parent="WIyWlLk6GJQsqaUBKTNV-1" vertex="1">
                    <mxGeometry x="241" y="70" width="240" height="60" as="geometry"/>
                </mxCell>
                <mxCell id="H9bdCFED5cMMtgCu7hp--3" value="" style="whiteSpace=wrap;html=1;aspect=fixed;" parent="WIyWlLk6GJQsqaUBKTNV-1" vertex="1">
                    <mxGeometry x="275" y="190" width="80" height="80" as="geometry"/>
                </mxCell>
                <mxCell id="H9bdCFED5cMMtgCu7hp--5" value="" style="endArrow=none;dashed=1;html=1;entryX=0.25;entryY=0;entryDx=0;entryDy=0;exitX=0.25;exitY=1;exitDx=0;exitDy=0;fillColor=#f8cecc;strokeColor=#b85450;" parent="WIyWlLk6GJQsqaUBKTNV-1" source="H9bdCFED5cMMtgCu7hp--3" target="H9bdCFED5cMMtgCu7hp--3" edge="1">
                    <mxGeometry width="50" height="50" relative="1" as="geometry">
                        <mxPoint x="290" y="270" as="sourcePoint"/>
                        <mxPoint x="340" y="220" as="targetPoint"/>
                    </mxGeometry>
                </mxCell>
                <mxCell id="H9bdCFED5cMMtgCu7hp--6" value="" style="endArrow=none;dashed=1;html=1;entryX=0.25;entryY=0;entryDx=0;entryDy=0;exitX=0.25;exitY=1;exitDx=0;exitDy=0;fillColor=#f8cecc;strokeColor=#b85450;" parent="WIyWlLk6GJQsqaUBKTNV-1" edge="1">
                    <mxGeometry width="50" height="50" relative="1" as="geometry">
                        <mxPoint x="314" y="270" as="sourcePoint"/>
                        <mxPoint x="314" y="190" as="targetPoint"/>
                    </mxGeometry>
                </mxCell>
                <mxCell id="H9bdCFED5cMMtgCu7hp--10" value="" style="shape=flexArrow;endArrow=classic;html=1;" parent="WIyWlLk6GJQsqaUBKTNV-1" edge="1">
                    <mxGeometry width="50" height="50" relative="1" as="geometry">
                        <mxPoint x="201" y="220" as="sourcePoint"/>
                        <mxPoint x="281" y="230" as="targetPoint"/>
                    </mxGeometry>
                </mxCell>
                <mxCell id="H9bdCFED5cMMtgCu7hp--11" value="laser" style="text;html=1;strokeColor=none;fillColor=none;align=center;verticalAlign=middle;whiteSpace=wrap;rounded=0;" parent="WIyWlLk6GJQsqaUBKTNV-1" vertex="1">
                    <mxGeometry x="293" y="173" width="44" height="20" as="geometry"/>
                </mxCell>
                <mxCell id="H9bdCFED5cMMtgCu7hp--13" value="光路及び光強度取得プログラム" style="text;html=1;align=center;verticalAlign=middle;resizable=0;points=[];autosize=1;strokeColor=none;fontSize=14;" parent="WIyWlLk6GJQsqaUBKTNV-1" vertex="1">
                    <mxGeometry x="40" y="40" width="210" height="20" as="geometry"/>
                </mxCell>
                <mxCell id="H9bdCFED5cMMtgCu7hp--14" value="" style="rounded=0;html=1;jettySize=auto;orthogonalLoop=1;fontSize=11;endArrow=block;endFill=0;endSize=8;strokeWidth=1;shadow=0;labelBackgroundColor=none;edgeStyle=orthogonalEdgeStyle;" parent="WIyWlLk6GJQsqaUBKTNV-1" edge="1">
                    <mxGeometry relative="1" as="geometry">
                        <mxPoint x="120.5" y="240" as="sourcePoint"/>
                        <mxPoint x="120.5" y="290" as="targetPoint"/>
                        <Array as="points">
                            <mxPoint x="120.5" y="260"/>
                            <mxPoint x="120.5" y="260"/>
                        </Array>
                    </mxGeometry>
                </mxCell>
                <mxCell id="H9bdCFED5cMMtgCu7hp--15" value="光路,強度計算" style="shape=process;whiteSpace=wrap;html=1;backgroundOutline=1;" parent="WIyWlLk6GJQsqaUBKTNV-1" vertex="1">
                    <mxGeometry x="65" y="290" width="120" height="60" as="geometry"/>
                </mxCell>
                <mxCell id="H9bdCFED5cMMtgCu7hp--16" value="Light intensity per resolution calculation" style="text;whiteSpace=wrap;html=1;" parent="WIyWlLk6GJQsqaUBKTNV-1" vertex="1">
                    <mxGeometry x="125" y="150" width="230" height="30" as="geometry"/>
                </mxCell>
                <mxCell id="H9bdCFED5cMMtgCu7hp--17" value="Optical path and light intensity calculation" style="text;whiteSpace=wrap;html=1;" parent="WIyWlLk6GJQsqaUBKTNV-1" vertex="1">
                    <mxGeometry x="126" y="268" width="250" height="30" as="geometry"/>
                </mxCell>
                <mxCell id="H9bdCFED5cMMtgCu7hp--21" value="" style="rounded=0;html=1;jettySize=auto;orthogonalLoop=1;fontSize=11;endArrow=block;endFill=0;endSize=8;strokeWidth=1;shadow=0;labelBackgroundColor=none;edgeStyle=orthogonalEdgeStyle;" parent="WIyWlLk6GJQsqaUBKTNV-1" edge="1">
                    <mxGeometry relative="1" as="geometry">
                        <mxPoint x="120.5" y="350" as="sourcePoint"/>
                        <mxPoint x="120.5" y="400" as="targetPoint"/>
                        <Array as="points">
                            <mxPoint x="120.5" y="370"/>
                            <mxPoint x="120.5" y="370"/>
                        </Array>
                    </mxGeometry>
                </mxCell>
                <mxCell id="H9bdCFED5cMMtgCu7hp--23" value="output" style="rounded=1;whiteSpace=wrap;html=1;fontSize=12;glass=0;strokeWidth=1;shadow=0;" parent="WIyWlLk6GJQsqaUBKTNV-1" vertex="1">
                    <mxGeometry x="46" y="400" width="150" height="60" as="geometry"/>
                </mxCell>
                <mxCell id="H9bdCFED5cMMtgCu7hp--25" value="Output the data of each ray to CSV" style="text;whiteSpace=wrap;html=1;" parent="WIyWlLk6GJQsqaUBKTNV-1" vertex="1">
                    <mxGeometry x="125" y="370" width="210" height="30" as="geometry"/>
                </mxCell>
                <mxCell id="H9bdCFED5cMMtgCu7hp--32" value="input&lt;br&gt;(始点座標,ベクトル,光強度," style="rounded=1;whiteSpace=wrap;html=1;fontSize=12;glass=0;strokeWidth=1;shadow=0;" parent="WIyWlLk6GJQsqaUBKTNV-1" vertex="1">
                    <mxGeometry x="540" y="70" width="150" height="60" as="geometry"/>
                </mxCell>
                <mxCell id="H9bdCFED5cMMtgCu7hp--33" value="&lt;meta charset=&quot;utf-8&quot;&gt;&lt;span style=&quot;color: rgb(0, 0, 0); font-family: helvetica; font-size: 12px; font-style: normal; font-weight: 400; letter-spacing: normal; text-align: center; text-indent: 0px; text-transform: none; word-spacing: 0px; background-color: rgb(248, 249, 250); display: inline; float: none;&quot;&gt;光路,強度計算&lt;/span&gt;" style="text;whiteSpace=wrap;html=1;fontSize=14;" parent="WIyWlLk6GJQsqaUBKTNV-1" vertex="1">
                    <mxGeometry x="580" y="40" width="100" height="30" as="geometry"/>
                </mxCell>
                <mxCell id="H9bdCFED5cMMtgCu7hp--36" value="" style="rounded=0;html=1;jettySize=auto;orthogonalLoop=1;fontSize=11;endArrow=block;endFill=0;endSize=8;strokeWidth=1;shadow=0;labelBackgroundColor=none;edgeStyle=orthogonalEdgeStyle;" parent="WIyWlLk6GJQsqaUBKTNV-1" edge="1">
                    <mxGeometry relative="1" as="geometry">
                        <mxPoint x="614.5" y="130" as="sourcePoint"/>
                        <mxPoint x="614.5" y="180" as="targetPoint"/>
                    </mxGeometry>
                </mxCell>
                <mxCell id="H9bdCFED5cMMtgCu7hp--44" value="境界への入射角算出&lt;br&gt;θ[rad]" style="rounded=1;whiteSpace=wrap;html=1;fontSize=12;glass=0;strokeWidth=1;shadow=0;" parent="WIyWlLk6GJQsqaUBKTNV-1" vertex="1">
                    <mxGeometry x="540" y="250" width="150" height="60" as="geometry"/>
                </mxCell>
                <mxCell id="H9bdCFED5cMMtgCu7hp--45" value="臨界角 &amp;gt; 入射角&lt;br&gt;and&lt;br&gt;細管外へ透過" style="rhombus;whiteSpace=wrap;html=1;fontSize=11;strokeColor=#000000;fillColor=none;" parent="WIyWlLk6GJQsqaUBKTNV-1" vertex="1">
                    <mxGeometry x="535" y="350" width="160" height="80" as="geometry"/>
                </mxCell>
                <mxCell id="H9bdCFED5cMMtgCu7hp--55" style="edgeStyle=orthogonalEdgeStyle;rounded=0;orthogonalLoop=1;jettySize=auto;html=1;exitX=1;exitY=0.5;exitDx=0;exitDy=0;entryX=0;entryY=0.75;entryDx=0;entryDy=0;fontSize=11;" parent="WIyWlLk6GJQsqaUBKTNV-1" source="H9bdCFED5cMMtgCu7hp--47" target="H9bdCFED5cMMtgCu7hp--52" edge="1">
                    <mxGeometry relative="1" as="geometry"/>
                </mxCell>
                <mxCell id="H9bdCFED5cMMtgCu7hp--47" value="" style="shape=loopLimit;whiteSpace=wrap;html=1;fontSize=11;strokeColor=#000000;fillColor=none;rotation=-180;" parent="WIyWlLk6GJQsqaUBKTNV-1" vertex="1">
                    <mxGeometry x="542.5" y="470" width="145" height="30" as="geometry"/>
                </mxCell>
                <mxCell id="H9bdCFED5cMMtgCu7hp--48" value="" style="rounded=0;html=1;jettySize=auto;orthogonalLoop=1;fontSize=11;endArrow=block;endFill=0;endSize=8;strokeWidth=1;shadow=0;labelBackgroundColor=none;edgeStyle=orthogonalEdgeStyle;" parent="WIyWlLk6GJQsqaUBKTNV-1" edge="1">
                    <mxGeometry relative="1" as="geometry">
                        <mxPoint x="614.5" y="210" as="sourcePoint"/>
                        <mxPoint x="615" y="250" as="targetPoint"/>
                        <Array as="points">
                            <mxPoint x="615" y="230"/>
                            <mxPoint x="615" y="230"/>
                        </Array>
                    </mxGeometry>
                </mxCell>
                <mxCell id="H9bdCFED5cMMtgCu7hp--49" value="" style="rounded=0;html=1;jettySize=auto;orthogonalLoop=1;fontSize=11;endArrow=block;endFill=0;endSize=8;strokeWidth=1;shadow=0;labelBackgroundColor=none;edgeStyle=orthogonalEdgeStyle;" parent="WIyWlLk6GJQsqaUBKTNV-1" edge="1">
                    <mxGeometry relative="1" as="geometry">
                        <mxPoint x="614.5" y="310" as="sourcePoint"/>
                        <mxPoint x="615" y="350" as="targetPoint"/>
                        <Array as="points">
                            <mxPoint x="615" y="330"/>
                            <mxPoint x="615" y="330"/>
                        </Array>
                    </mxGeometry>
                </mxCell>
                <mxCell id="H9bdCFED5cMMtgCu7hp--50" value="" style="rounded=0;html=1;jettySize=auto;orthogonalLoop=1;fontSize=11;endArrow=block;endFill=0;endSize=8;strokeWidth=1;shadow=0;labelBackgroundColor=none;edgeStyle=orthogonalEdgeStyle;" parent="WIyWlLk6GJQsqaUBKTNV-1" edge="1">
                    <mxGeometry relative="1" as="geometry">
                        <mxPoint x="614.5" y="430" as="sourcePoint"/>
                        <mxPoint x="615" y="470" as="targetPoint"/>
                        <Array as="points">
                            <mxPoint x="615" y="450"/>
                            <mxPoint x="615" y="450"/>
                        </Array>
                    </mxGeometry>
                </mxCell>
                <mxCell id="H9bdCFED5cMMtgCu7hp--52" value="loop&lt;br&gt;細管外へ透過するまで" style="shape=loopLimit;whiteSpace=wrap;html=1;fontSize=11;strokeColor=#000000;fillColor=none;" parent="WIyWlLk6GJQsqaUBKTNV-1" vertex="1">
                    <mxGeometry x="542.5" y="180" width="145" height="30" as="geometry"/>
                </mxCell>
                <mxCell id="H9bdCFED5cMMtgCu7hp--56" value="NO" style="text;html=1;align=center;verticalAlign=middle;resizable=0;points=[];autosize=1;strokeColor=none;fontSize=11;" parent="WIyWlLk6GJQsqaUBKTNV-1" vertex="1">
                    <mxGeometry x="615" y="440" width="30" height="20" as="geometry"/>
                </mxCell>
                <mxCell id="H9bdCFED5cMMtgCu7hp--60" value="" style="rounded=0;html=1;jettySize=auto;orthogonalLoop=1;fontSize=11;endArrow=block;endFill=0;endSize=8;strokeWidth=1;shadow=0;labelBackgroundColor=none;edgeStyle=orthogonalEdgeStyle;exitX=1;exitY=0.5;exitDx=0;exitDy=0;" parent="WIyWlLk6GJQsqaUBKTNV-1" source="H9bdCFED5cMMtgCu7hp--45" edge="1">
                    <mxGeometry relative="1" as="geometry">
                        <mxPoint x="740" y="380" as="sourcePoint"/>
                        <mxPoint x="750" y="450" as="targetPoint"/>
                        <Array as="points">
                            <mxPoint x="750" y="390"/>
                            <mxPoint x="750" y="450"/>
                        </Array>
                    </mxGeometry>
                </mxCell>
                <mxCell id="H9bdCFED5cMMtgCu7hp--66" style="edgeStyle=orthogonalEdgeStyle;rounded=0;orthogonalLoop=1;jettySize=auto;html=1;exitX=0.5;exitY=1;exitDx=0;exitDy=0;entryX=1;entryY=0.5;entryDx=0;entryDy=0;fontSize=11;" parent="WIyWlLk6GJQsqaUBKTNV-1" source="H9bdCFED5cMMtgCu7hp--61" target="H9bdCFED5cMMtgCu7hp--65" edge="1">
                    <mxGeometry relative="1" as="geometry"/>
                </mxCell>
                <mxCell id="H9bdCFED5cMMtgCu7hp--61" value="break" style="rounded=0;whiteSpace=wrap;html=1;fontSize=11;strokeColor=#000000;fillColor=none;" parent="WIyWlLk6GJQsqaUBKTNV-1" vertex="1">
                    <mxGeometry x="710" y="450" width="80" height="40" as="geometry"/>
                </mxCell>
                <mxCell id="H9bdCFED5cMMtgCu7hp--65" value="output" style="rounded=1;whiteSpace=wrap;html=1;fontSize=12;glass=0;strokeWidth=1;shadow=0;" parent="WIyWlLk6GJQsqaUBKTNV-1" vertex="1">
                    <mxGeometry x="540" y="540" width="150" height="60" as="geometry"/>
                </mxCell>
                <mxCell id="H9bdCFED5cMMtgCu7hp--67" value="Loop until light rays penetrate outside the microtubule" style="text;whiteSpace=wrap;html=1;fontSize=11;" parent="WIyWlLk6GJQsqaUBKTNV-1" vertex="1">
                    <mxGeometry x="630" y="150" width="290" height="30" as="geometry"/>
                </mxCell>
                <mxCell id="H9bdCFED5cMMtgCu7hp--68" value="Calculation of the angle of incidence to the boundary surface" style="text;whiteSpace=wrap;html=1;fontSize=11;" parent="WIyWlLk6GJQsqaUBKTNV-1" vertex="1">
                    <mxGeometry x="620" y="220" width="320" height="30" as="geometry"/>
                </mxCell>
                <mxCell id="H9bdCFED5cMMtgCu7hp--69" value="Judge if critical angle is exceeded" style="text;whiteSpace=wrap;html=1;fontSize=11;" parent="WIyWlLk6GJQsqaUBKTNV-1" vertex="1">
                    <mxGeometry x="620" y="320" width="190" height="30" as="geometry"/>
                </mxCell>
                <mxCell id="H9bdCFED5cMMtgCu7hp--70" value="YES" style="text;html=1;align=center;verticalAlign=middle;resizable=0;points=[];autosize=1;strokeColor=none;fontSize=11;" parent="WIyWlLk6GJQsqaUBKTNV-1" vertex="1">
                    <mxGeometry x="750" y="390" width="40" height="20" as="geometry"/>
                </mxCell>
            </root>
        </mxGraphModel>
    </diagram>
</mxfile>